<?xml version="1.0" standalone="no"?>
<!DOCTYPE svg PUBLIC "-//W3C//DTD SVG 1.1//EN" "http://www.w3.org/Graphics/SVG/1.1/DTD/svg11.dtd" >
<svg xmlns="http://www.w3.org/2000/svg" xmlns:xlink="http://www.w3.org/1999/xlink" version="1.1">
<metadata>
Created by FontForge 20170731 at Wed Dec 28 23:43:41 2016
 By Aleksey,,,
Copyright (c) 2015 by Andrew Herndon. All rights reserved.
</metadata>
<defs>
<font id="ExodusDemo-Sh" horiz-adv-x="741" >
  <font-face 
    font-family="Exodus Demo Sh"
    font-weight="402"
    font-stretch="normal"
    units-per-em="1000"
    panose-1="0 0 5 0 0 0 0 0 0 0"
    ascent="810"
    descent="-190"
    x-height="731"
    cap-height="731"
    bbox="10 -215 1064 810"
    underline-thickness="50"
    underline-position="-200"
    unicode-range="U+0020-201D"
  />
<missing-glyph horiz-adv-x="500" 
d="M410 810v-1000h-317v1000h317zM333 743h-165v-33h65v-37h-66v-33h166v33h-66v37h66v33zM267 614h-100v-104h166v34h-66v70zM233 580v-36h-33v36h33zM333 483h-166v-33h66v-37h-66v-33h100v70h66v33zM333 423h-33v-66h-133v-34h166v100zM333 301h-100v-56h34v23h33v-47
h-100v80h-33v-113h166v113zM333 128h-166v-113h166v113zM300 95v-47h-100v47h100zM333 -8h-166v-33h70l-70 -47v-33h166v33h-102l70 47h32v33z" />
    <glyph glyph-name=".notdef" horiz-adv-x="500" 
d="M410 810v-1000h-317v1000h317zM333 743h-165v-33h65v-37h-66v-33h166v33h-66v37h66v33zM267 614h-100v-104h166v34h-66v70zM233 580v-36h-33v36h33zM333 483h-166v-33h66v-37h-66v-33h100v70h66v33zM333 423h-33v-66h-133v-34h166v100zM333 301h-100v-56h34v23h33v-47
h-100v80h-33v-113h166v113zM333 128h-166v-113h166v113zM300 95v-47h-100v47h100zM333 -8h-166v-33h70l-70 -47v-33h166v33h-102l70 47h32v33z" />
    <glyph glyph-name=".null" horiz-adv-x="0" 
 />
    <glyph glyph-name="nonmarkingreturn" horiz-adv-x="333" 
 />
    <glyph glyph-name="space" unicode=" " horiz-adv-x="300" 
 />
    <glyph glyph-name="exclam" unicode="!" horiz-adv-x="192" 
d="M143 686q0 29 -13 43.5t-34 14.5q-47 0 -47 -58q0 -41 19 -196.5t19 -278.5h19q0 123 18.5 278.5t18.5 196.5zM162 60q0 27 -19.5 46.5t-46.5 19.5t-46.5 -19.5t-19.5 -46.5t19.5 -46.5t46.5 -19.5t46.5 19.5t19.5 46.5z" />
    <glyph glyph-name="quotedbl" unicode="&#x22;" horiz-adv-x="293" 
d="M30 731h66l-12 -321h-41zM195 731h68l-12 -321h-42z" />
    <glyph glyph-name="ampersand" unicode="&#x26;" horiz-adv-x="816" 
d="M765 100h-16q0 -3 -0.5 -7t-5 -14.5t-12 -17.5t-23.5 -11.5t-38 -0.5q-18 3 -38 18.5t-36.5 35.5t-30.5 39.5t-22 33.5l-8 13q21 37 47 87t44 80q26 45 50.5 61.5t54.5 16.5v19h-235v-19q50 0 75 -37q15 -36 5.5 -80t-29.5 -81l-20 -36l-195 267q6 2 17 6t38 17.5
t47.5 29t37.5 41.5t17 54q0 45 -28.5 75t-62.5 40t-68 10q-65 0 -106.5 -21.5t-54 -56t-8 -76.5t25.5 -83.5t52 -75.5q-6 -3 -16.5 -9.5t-38.5 -26.5t-50.5 -42t-45.5 -55t-32.5 -66t-2 -74t37.5 -81q48 -62 123.5 -78.5t147 13t114.5 92.5q2 -4 7 -10.5t20.5 -23.5t32 -31
t42 -28t50.5 -20q43 -8 73 0.5t42 26.5t18 37.5t5 34.5zM323 476q-8 10 -20.5 26t-33.5 55t-21 65q0 30 8.5 52t20 31.5t23.5 14.5t20 5h9q33 0 62 -26.5t29 -82.5q0 -26 -10 -50.5t-24 -40t-28.5 -27t-24.5 -16.5zM469 113q-14 -16 -34.5 -31t-51 -25t-61.5 -9t-68.5 22.5
t-71.5 64.5q-113 143 64 282z" />
    <glyph glyph-name="quotesingle" unicode="'" horiz-adv-x="126" 
d="M30 731h66l-12 -321h-40z" />
    <glyph glyph-name="plus" unicode="+" horiz-adv-x="603" 
d="M333 390h240v-56h-240v-243h-62v243h-241v56h241v244h62v-244z" />
    <glyph glyph-name="comma" unicode="," horiz-adv-x="205" 
d="M157 93q-21 33 -61 33q-28 0 -47 -19t-19 -47q0 -31 18.5 -48.5t47.5 -17.5q13 0 22 4q7 3 13 -1t6 -11q0 -30 -23 -59t-56 -43l10 -18q107 50 107 159q0 40 -18 68z" />
    <glyph glyph-name="hyphen" unicode="-" horiz-adv-x="433" 
d="M30 242h373v59h-373v-59z" />
    <glyph glyph-name="period" unicode="." horiz-adv-x="192" 
d="M162 60q0 28 -19 47.5t-47 19.5q-27 0 -46.5 -19.5t-19.5 -47.5q0 -26 19.5 -46t46.5 -20t46.5 19.5t19.5 46.5z" />
    <glyph glyph-name="slash" unicode="/" horiz-adv-x="415" 
d="M93 -15l292 746h-63l-292 -746h63z" />
    <glyph glyph-name="zero" unicode="0" horiz-adv-x="577" 
d="M547 366q0 150 -77 258.5t-178 108.5q-102 0 -182 -108.5t-80 -258.5t80 -259.5t182 -109.5q101 0 178 109.5t77 259.5zM416 366q0 -154 -32 -255t-92 -101t-96 102.5t-36 253.5q0 150 35.5 252t95.5 102t92.5 -100.5t32.5 -253.5z" />
    <glyph glyph-name="one" unicode="1" horiz-adv-x="353" 
d="M323 14q-46 0 -65 16.5t-19 54.5v646q-103 -56 -209 -97l4 -29q9 3 23.5 9t22.5 9t18.5 5.5t16 1.5t11 -4.5t7.5 -12.5t2 -23v-505q0 -37 -18.5 -54t-63.5 -17v-14h270v14z" />
    <glyph glyph-name="two" unicode="2" horiz-adv-x="523" 
d="M493 153l-22 2q-16 -31 -44 -48t-48 -19l-20 -1h-211l184 205q156 162 136 294q-13 84 -90 123q-79 39 -163 5q-99 -40 -134 -159q-2 -7 -4 -13l21 -4q44 83 126 90q71 7 120 -46q60 -64 30 -162q-17 -55 -63 -112q-51 -63 -121.5 -140t-115.5 -122l-44 -46h410z" />
    <glyph glyph-name="three" unicode="3" horiz-adv-x="503" 
d="M99 0q215 12 317 117q71 73 55 154q-14 73 -92 106q-35 15 -78 18q115 65 112 164q-2 76 -66 130q-69 57 -150 41q-103 -21 -159 -158l-8 -22l23 -3q51 102 130 109q60 6 98 -43q43 -55 15 -124q-34 -85 -163 -142l7 -17q113 39 176 -17q49 -44 37 -115
q-14 -82 -101 -134q-62 -36 -150 -46z" />
    <glyph glyph-name="four" unicode="4" horiz-adv-x="590" 
d="M371 731l-341 -517h309v-129q0 -38 -18.5 -54.5t-64.5 -16.5v-14h270v14q-45 0 -64.5 17t-19.5 54v129h93l25 101l-16 1q-7 -21 -32.5 -31.5t-47.5 -10.5h-22v457h-71zM339 646v-372h-247z" />
    <glyph glyph-name="five" unicode="5" horiz-adv-x="488" 
d="M103 0q211 16 304 131q67 83 46 177q-19 87 -101 127q-119 59 -292 -20l-3 -1l29 221h307l35 96h-351l-47 -366q156 56 250 -4q68 -42 69 -120q1 -87 -81 -153q-64 -51 -164 -72z" />
    <glyph glyph-name="six" unicode="6" horiz-adv-x="550" 
d="M455 731q-247 -46 -358 -217q-84 -129 -63 -279q18 -129 103 -199q67 -55 156 -49q142 10 199 115q47 86 17 185q-27 94 -105 132q-107 52 -248 -38q10 46 19 76.5t24 66t36 60t50.5 48.5t72 40.5t97.5 28.5v30zM144 274q0 51 12 89q138 68 207 -22q50 -66 41 -176
q-8 -100 -57 -145q-24 -21 -52 -21q-69 0 -110 82.5t-41 192.5z" />
    <glyph glyph-name="seven" unicode="7" horiz-adv-x="551" 
d="M211 0q-6 288 241 634l69 97h-491v-156h15q12 37 56.5 52.5t92 14.5t121.5 -5.5t112 -2.5q-12 -13 -33 -36.5t-76 -95.5t-99.5 -143.5t-85.5 -171t-52 -187.5h130z" />
    <glyph glyph-name="eight" unicode="8" horiz-adv-x="523" 
d="M471 565q0 70 -59.5 119t-147.5 49q-99 0 -154.5 -54t-55.5 -131q0 -103 136 -178q-85 -54 -115 -85q-45 -47 -45 -99q0 -90 61.5 -140t167.5 -50q90 0 162 57t72 152q0 67 -41 110.5t-116 84.5l18 12t19.5 13.5t18 13t18.5 14.5t15.5 15t15.5 16.5t12 17t10 19.5
t5.5 20.5t2.5 23.5zM146 583q0 50 30.5 94.5t85.5 44.5q51 0 85.5 -46.5t34.5 -118.5q0 -102 -61 -149q-80 37 -127.5 77.5t-47.5 97.5zM397 172q0 -67 -40.5 -115.5t-97.5 -48.5q-62 0 -96.5 55t-34.5 138q0 112 77 162q85 -42 138.5 -87.5t53.5 -103.5z" />
    <glyph glyph-name="nine" unicode="9" horiz-adv-x="550" 
d="M95 0q247 46 358 217q84 129 63 279q-17 129 -102 199q-67 55 -156 49q-142 -10 -200 -115q-47 -85 -18 -185q28 -93 106 -131q107 -53 248 37q-10 -46 -19 -76.5t-24 -66t-36 -60t-50.5 -48.5t-72 -40.5t-97.5 -28.5v-30zM406 457q0 -49 -11 -89q-138 -68 -207 22
q-51 66 -42 176q7 99 56 144q24 22 53 22q69 0 110 -82.5t41 -192.5z" />
    <glyph glyph-name="colon" unicode=":" horiz-adv-x="192" 
d="M162 488q0 27 -19.5 46.5t-46.5 19.5t-46.5 -19.5t-19.5 -46.5t19.5 -46.5t46.5 -19.5t46.5 19.5t19.5 46.5zM162 60q0 27 -19.5 46.5t-46.5 19.5t-46.5 -19.5t-19.5 -46.5t19.5 -46.5t46.5 -19.5t46.5 19.5t19.5 46.5z" />
    <glyph glyph-name="semicolon" unicode=";" horiz-adv-x="205" 
d="M103 422q-27 0 -46.5 19.5t-19.5 46.5t19.5 46.5t46.5 19.5q28 0 47 -19.5t19 -46.5t-19 -46.5t-47 -19.5zM157 93q-21 33 -61 33q-28 0 -47 -19t-19 -47q0 -31 18.5 -48.5t47.5 -17.5q14 0 23 4q7 3 12.5 -1t5.5 -11q0 -30 -23 -59t-56 -43l10 -18q107 50 107 159
q0 40 -18 68z" />
    <glyph glyph-name="question" unicode="?" horiz-adv-x="475" 
d="M445 559q-3 51 -30.5 89.5t-68 59t-85.5 29t-88 4.5q-44 -5 -75 -20.5t-44.5 -35.5t-18.5 -35.5t-5 -29.5q1 -22 17 -37.5t38 -15.5q23 1 38.5 15.5t15.5 39.5q0 22 -17 38t-44 17q15 23 45.5 34t62.5 9q63 -5 99.5 -48t37.5 -121q3 -118 -82 -174q-36 -24 -57 -62.5
t-21 -81.5v-50h21v21q0 100 83 137q22 10 31 14t32 17t35 22.5t30 28t27 36.5t16 44.5t7 55.5zM174 125q28 0 47 -20t18 -48q-1 -26 -20.5 -45.5t-47.5 -19.5q-27 1 -46 21.5t-18 46.5q1 28 20.5 47t46.5 18z" />
    <glyph glyph-name="A" unicode="A" horiz-adv-x="708" 
d="M678 0h-648l306 711l36 20zM61 13h503l-253 595z" />
    <glyph glyph-name="B" unicode="B" horiz-adv-x="627" 
d="M370 334q30 0 67 -9t74 -28t61.5 -53t24.5 -77q0 -87 -70.5 -127t-181.5 -40h-315v13q18 0 30.5 2t27.5 9.5t23 24.5t8 44v549q0 22 -7 38t-15 23t-23 11t-21.5 4h-20.5v13h295q34 0 64 -5.5t68 -22t61 -56.5t23 -100q0 -56 -17.5 -99.5t-45 -66.5t-55.5 -34.5t-55 -12.5
zM223 643v-305h81q47 0 82.5 49.5t35.5 160.5q0 53 -13.5 90t-33 51.5t-39 22t-32.5 6.5l-14 -1h-7.5t-16 -4t-20.5 -10.5t-16 -22t-7 -37.5zM286 14q4 0 11 -0.5t26.5 1.5t37.5 6t40 15t37.5 26t26.5 41.5t11 59.5q0 39 -12 69t-30 47t-42 27.5t-45 14t-43 3.5h-81v-231
q0 -37 16 -56.5t31 -20.5z" />
    <glyph glyph-name="C" unicode="C" horiz-adv-x="680" 
d="M363 -10q67 0 121 24t83.5 58t49.5 68t27 58l6 24q-26 -51 -72 -89t-98.5 -56t-108.5 -12t-102 35.5t-78 94.5t-37 157q-4 25 -0.5 62.5t8.5 78.5t22.5 82.5t41 74t64.5 53t94 20.5q99 -1 163 -83t70 -178h17l12 179q-4 4 -12.5 11t-35 24t-55 30t-71.5 23.5t-86 9.5h-20
t-50 -6.5t-70.5 -19t-74.5 -41t-70.5 -68t-50 -104.5t-20.5 -147q0 -70 21.5 -131t56.5 -102.5t79.5 -71.5t89 -44t86.5 -14z" />
    <glyph glyph-name="D" unicode="D" horiz-adv-x="723" 
d="M693 374q0 77 -18 138t-45.5 98t-66.5 63t-74 37.5t-74 16.5q-25 4 -57 4h-327v-13q48 0 68.5 -18.5t20.5 -55.5v-554q0 -77 -90 -77v-13h272q39 0 65.5 1.5t71 9t75.5 21t67.5 41.5t59 66.5t37.5 98.5t15 136zM566 367q4 -85 -15 -158.5t-51 -109.5q-35 -41 -88 -63
t-110 -22q-22 0 -34 1.5t-24 8t-16.5 21.5t-4.5 39v567q0 40 21 53.5t62 13.5q40 0 94 -18q78 -25 118 -102q42 -80 48 -231z" />
    <glyph glyph-name="E" unicode="E" horiz-adv-x="617" 
d="M571 205h16l-14 -205h-543v13q35 0 62 16.5t27 55.5v561q0 72 -89 72v13h524l13 -184h-15q-15 79 -70 125t-137 46h-47q-38 0 -56.5 -19t-18.5 -50v-160l115 2q136 5 136 102h16v-217h-16q0 48 -36.5 73.5t-101.5 27.5l-113 -2v-259l115 2q136 5 136 102h16v-217h-16
q0 48 -36.5 73.5t-101.5 27.5l-113 -2v-120q0 -18 8 -32t18 -21t22 -11t18 -4.5t9 -0.5h65q97 0 149 55t59 137z" />
    <glyph glyph-name="F" unicode="F" horiz-adv-x="597" 
d="M553 731l14 -195h-14q-14 94 -74.5 138t-134.5 44h-46q-76 0 -76 -69v-160l116 2q136 5 136 102h16v-217h-16q0 48 -36.5 73.5t-101.5 27.5l-114 -2v-259l116 2q136 5 136 102h16v-217h-16q0 48 -36.5 73.5t-101.5 27.5l-114 -2v-116q0 -73 98 -73v-13h-290v13
q34 0 60.5 17t26.5 57v559q0 21 -7 35.5t-15.5 21.5t-23.5 10.5t-22 4t-19 0.5v13h523z" />
    <glyph glyph-name="G" unicode="G" horiz-adv-x="674" 
d="M644 310v-177l-94 -87q-77 -58 -177 -58q-64 0 -124 23t-109.5 66.5t-79.5 114t-30 158.5q0 179 97 283.5t247 104.5q43 0 86 -10t74.5 -24.5t56.5 -29t37 -24.5l13 -10l-12 -180h-17q-8 125 -72.5 194t-166.5 69q-62 0 -107.5 -37.5t-68.5 -96.5t-33.5 -118t-10.5 -116
q0 -26 4.5 -58.5t15 -73.5t28 -77.5t43 -69.5t60.5 -50.5t80 -20.5t102 21q42 18 42 64v220h116z" />
    <glyph glyph-name="H" unicode="H" horiz-adv-x="753" 
d="M721 718q-75 0 -75 -73v-559q0 -41 23.5 -57t53.5 -16v-13h-255v13q35 0 55.5 14.5t20.5 57.5v125h-334v-125q0 -43 20.5 -57.5t56.5 -14.5v-13h-257v13q78 0 78 73v558q0 41 -23.5 57.5t-54.5 16.5v13h257v-13q-36 0 -56.5 -15t-20.5 -58v-421h334v422q0 43 -21 57.5
t-57 14.5v13h255v-13z" />
    <glyph glyph-name="I" unicode="I" horiz-adv-x="313" 
d="M207 646v-561q0 -42 20.5 -57t55.5 -15v-13h-253v13q35 0 55 15t20 57v561q0 42 -20 57t-55 15v13h253v-13q-35 0 -55.5 -15t-20.5 -57z" />
    <glyph glyph-name="J" unicode="J" horiz-adv-x="352" 
d="M322 718v13h-254v-13q76 0 76 -71v-475v-38t-6.5 -85.5t-18.5 -108.5t-40.5 -85.5t-68.5 -38.5v-12q49 0 88 16.5t63.5 40t42 61t25.5 66.5t12.5 70t5 59t0.5 45v7v475q0 45 20.5 59.5t54.5 14.5z" />
    <glyph glyph-name="K" unicode="K" horiz-adv-x="732" 
d="M668 19q18 -6 34 -6v-13h-233l-160 196h-87v-110q0 -22 8.5 -37t17 -22t26.5 -10.5t23.5 -3.5h21.5v-13h-289v13h19.5t21.5 3.5t24 10.5t15.5 22t7.5 36v560q0 73 -87 73v13h266v-13q-75 0 -75 -72v-437h70q101 0 166.5 121t51.5 314q-4 43 -26.5 58.5t-72.5 15.5v13h231
v-14q-57 0 -83 -16.5t-24 -64.5q3 -86 -8 -158t-29 -114t-36 -71.5t-31 -40.5l-13 -11q6 -8 16.5 -21t41 -47.5t59.5 -62.5t66 -55t67 -36z" />
    <glyph glyph-name="L" unicode="L" horiz-adv-x="626" 
d="M596 217h-21q-11 -43 -28.5 -76.5t-35 -54.5t-43.5 -36t-44 -22t-47 -10.5t-41 -4t-37 -0.5q-31 0 -52 17t-21 54v558q0 47 17.5 61t54.5 14v14h-268v-13q88 0 88 -73v-560q0 -25 -7.5 -40.5t-22.5 -21.5t-26.5 -7.5t-31.5 -1.5v-14h544z" />
    <glyph glyph-name="M" unicode="M" horiz-adv-x="1007" 
d="M30 0l345 762l140 -351l159 351l303 -762h-947zM335 13l122 270l-128 321l-269 -591h275zM628 604l-101 -223l146 -368h190zM359 13h205l-95 240z" />
    <glyph glyph-name="N" unicode="N" horiz-adv-x="1029" 
d="M781 731h218v-14q-36 0 -70 -35.5t-34 -110.5v-571h-27l-345 601q-1 -4 -1 -393l-1 -48q0 -4 1 -6v-154h-27l-344 600v-443q0 -75 35.5 -109t72.5 -34v-14h-229v14q38 0 72.5 34t34.5 111l1 461l-20 34q-4 7 -10.5 17t-26 26.5t-38.5 16.5v17h171l295 -520v368
q0 38 -4 53l-13 22q-4 7 -10.5 17t-26.5 26.5t-39 16.5v17h170l296 -524v365q0 77 -32 111t-69 34v14z" />
    <glyph glyph-name="O" unicode="O" 
d="M559 370q84 -34 125 -92t20 -121q-19 -56 -81 -99t-148 -62.5t-174 -10.5q-134 14 -213 85.5t-51 156.5q28 83 144 134q-84 33 -124.5 91.5t-19.5 121.5q28 85 147.5 135t254.5 36t214 -85.5t51 -156.5q-29 -83 -145 -133zM162 563q-20 -58 -6 -108.5t58 -80.5
q109 37 225 25q32 -4 46 -7q70 50 96 127q28 83 -12 144t-134 71q-93 10 -169 -39t-104 -132zM471 382q-15 4 -33 6q-92 9 -170 -39q16 -5 36 -6q90 -10 167 39zM581 173q20 58 6 107t-58 78q-109 -38 -228 -26q-32 4 -48 7q-67 -48 -91 -122q-28 -83 11 -146t132 -73
t170.5 41t105.5 134z" />
    <glyph glyph-name="P" unicode="P" horiz-adv-x="605" 
d="M221 191h88q132 0 199 63.5t67 221.5q0 133 -62.5 194t-186.5 61h-295v-14q16 0 27 -1.5t27 -7.5t25 -22t9 -41v-560q0 -21 -7 -36t-15 -21.5t-23.5 -10t-22.5 -4t-21 -0.5v-13h290v13q-19 0 -31 1.5t-30.5 7.5t-28 22t-9.5 42v105zM221 203v417q0 32 2 41q4 18 15 32.5
t27 19.5q14 5 44 5q24 0 43.5 -4.5t33.5 -13t25.5 -20t18.5 -25.5t12 -30t7 -33t3.5 -35t1.5 -35v-34v-16q0 -59 -2 -94.5t-10 -73t-23.5 -57t-42.5 -32t-66 -12.5h-89z" />
    <glyph glyph-name="Q" unicode="Q" 
d="M559 368q84 -34 125 -92t20 -121q-24 -71 -114.5 -119t-204.5 -55q25 -13 55.5 -53t59 -71t55.5 -31q13 0 29 7t26 13l10 7l8 -14q-5 -6 -15 -15t-46.5 -24t-78.5 -15q-38 0 -69.5 25.5t-49 56.5t-40 56.5t-45.5 25.5q-11 0 -29.5 -6.5t-31.5 -13.5l-13 -7l-11 9
q44 37 101 53q-134 14 -212.5 85t-50.5 156q28 83 144 134q-83 34 -124 92t-20 121q29 85 149 135t254 36t213 -85.5t51 -156.5q-29 -83 -145 -133zM162 561q-20 -58 -6 -108.5t58 -80.5q109 37 226 25q33 -4 46 -7q69 50 95 127q28 83 -11.5 144t-133.5 71
q-93 10 -169.5 -39t-104.5 -132zM472 380q-17 5 -34 6q-92 9 -169 -39q16 -4 35 -6q89 -10 168 39zM581 171q20 58 6 107t-58 78q-109 -38 -228 -26q-32 4 -47 7q-68 -47 -92 -122q-28 -83 11 -146t132 -73q94 -10 171 41t105 134z" />
    <glyph glyph-name="R" unicode="R" horiz-adv-x="732" 
d="M668 19q18 -6 34 -6v-13h-233l-160 196h-87v-110q0 -22 8.5 -37t17 -22t26.5 -10.5t23.5 -3.5h21.5v-13h-289v13h19.5t21.5 3.5t24 10.5t15.5 22t7.5 36v560q0 73 -87 73v13h278q69 0 118 -15t76.5 -37.5t43 -60.5t19.5 -73.5t4 -86.5q0 -94 -44 -159.5t-94 -84.5
q5 -7 14.5 -18t37.5 -41t55.5 -54.5t63 -48.5t65.5 -33zM310 209q61 0 100 63t39 186q0 33 -1 55t-4.5 56.5t-13 57t-24 45.5t-39.5 34.5t-58 11.5q-87 0 -87 -72v-437h88z" />
    <glyph glyph-name="S" unicode="S" horiz-adv-x="530" 
d="M427 171q51 -24 66.5 -59t-3.5 -65t-63 -43q-85 -22 -171 -21t-152 13l-65 12l16 92h14q3 -42 50.5 -69.5t102.5 -35.5t96 -1q38 6 57.5 24t16 39.5t-25.5 38.5q-15 11 -33.5 21t-46 19.5t-44 14.5t-53 15.5t-46.5 13.5q-67 19 -91 46t-21 64q3 55 115 77q36 7 112.5 6
t93.5 13q37 16 42 40.5t-24 45.5q-18 14 -47.5 27t-52 20t-65.5 19.5t-58 17.5q-69 21 -94.5 48.5t-22.5 63.5q3 53 115 73q78 11 150.5 7.5t123.5 -13.5l51 -10l-16 -91h-14q-5 34 -37.5 59.5t-75 35t-86.5 13t-70 -5.5q-33 -8 -41 -29.5t6 -40.5q19 -33 119 -62
q118 -31 170 -57q51 -24 67.5 -59t-2.5 -64t-64 -41q-57 -16 -113 -19.5t-81 -0.5t-61 -6q-31 -9 -38 -30t6 -40q11 -20 39 -32t79 -27q118 -31 170 -57z" />
    <glyph glyph-name="T" unicode="T" horiz-adv-x="688" 
d="M658 514l-15 217h-598l-15 -217h22q31 204 176 204h64v-633q0 -31 -17 -48t-36 -20t-50 -3v-14h311v14q-23 0 -37 1.5t-32 8t-26.5 22t-8.5 40.5v632h58q58 0 99 -33t59.5 -76.5t24.5 -94.5h21z" />
    <glyph glyph-name="U" unicode="U" horiz-adv-x="549" 
d="M30 731h489v-428q1 -174 -53 -244.5t-186 -70.5q-250 0 -250 277v466zM287 28q46 0 82 11.5t58.5 27.5t38.5 43t24 48t12 54t4.5 48.5t0.5 42.5v415h-373q-5 -482 5 -537q15 -104 81 -138q29 -15 67 -15z" />
    <glyph glyph-name="V" unicode="V" horiz-adv-x="708" 
d="M30 731h648l-324 -762zM144 718l256 -591l248 591h-504z" />
    <glyph glyph-name="W" unicode="W" horiz-adv-x="1007" 
d="M977 731l-345 -762l-140 351l-159 -351l-303 762h947zM379 127l101 223l-146 368h-190zM648 718h-205l96 -240zM672 718l-122 -270l128 -321l269 591h-275z" />
    <glyph glyph-name="X" unicode="X" horiz-adv-x="922" 
d="M825 71q3 -6 9 -16t24 -26t34 -16v-13h-197v13q27 0 34.5 5.5t7.5 17.5q0 6 -10 26l-131 259l-76 -146q-23 -43 -31 -85l10 -19q3 -6 9 -16t24 -26t34 -16v-13h-210v13q26 0 54 27q-1 2 -9 19l-132 260l-75 -144l-21 -50q-38 -112 36 -112v-13h-179v13q32 0 70.5 42
t61.5 84l23 42l78 151l-151 305q-4 9 -11.5 22.5t-26.5 35.5t-33 22v14h196v-13q-49 0 -49 -27q0 -5 8 -24l121 -238l69 129q5 9 12 23t16.5 47t5.5 54q-25 35 -53 35v14h196v-13q-48 0 -48 -27q0 -8 7 -24l121 -238l69 129q1 2 3 5.5t7 14.5t9.5 21.5t9 25t6.5 27t0.5 25
t-6.5 21.5t-17 14.5t-29 5.5v13h180v-13q-30 0 -68.5 -41.5t-61.5 -82.5l-23 -42l-73 -135zM512 181l78 152l-149 293q-13 -18 -24.5 -36.5t-16.5 -27.5l-5 -10l-72 -135l152 -299z" />
    <glyph glyph-name="Y" unicode="Y" horiz-adv-x="705" 
d="M675 718q-35 0 -55.5 -15t-20.5 -57v-561q0 -42 20.5 -57t55.5 -15v-13h-253v13q35 0 55 15t20 57v190q-66 -29 -163 -29q-36 0 -64 2t-60.5 9t-54 19.5t-36 35t-14.5 52.5v282q0 42 -20 57t-55 15v13h253v-13q-35 0 -55.5 -15t-20.5 -57v-279q0 -46 40 -72.5t93 -26.5
q93 0 157 32v346q0 42 -20 57t-55 15v13h253v-13z" />
    <glyph glyph-name="Z" unicode="Z" horiz-adv-x="662" 
d="M382 13q46 0 81 18.5t55.5 50t32 64.5t17.5 71h21l-15 -217h-544l355 353h-260l355 365h-185q-76 0 -127 -54t-62 -149h-24l15 216h535l-356 -365l266 -1l-364 -352h204z" />
    <glyph glyph-name="a" unicode="a" horiz-adv-x="708" 
d="M678 0h-648l306 711l36 20zM61 13h503l-253 595z" />
    <glyph glyph-name="b" unicode="b" horiz-adv-x="627" 
d="M370 334q30 0 67 -9t74 -28t61.5 -53t24.5 -77q0 -87 -70.5 -127t-181.5 -40h-315v13q18 0 30.5 2t27.5 9.5t23 24.5t8 44v549q0 22 -7 38t-15 23t-23 11t-21.5 4h-20.5v13h295q34 0 64 -5.5t68 -22t61 -56.5t23 -100q0 -56 -17.5 -99.5t-45 -66.5t-55.5 -34.5t-55 -12.5
zM223 643v-305h81q47 0 82.5 49.5t35.5 160.5q0 53 -13.5 90t-33 51.5t-39 22t-32.5 6.5l-14 -1h-7.5t-16 -4t-20.5 -10.5t-16 -22t-7 -37.5zM286 14q4 0 11 -0.5t26.5 1.5t37.5 6t40 15t37.5 26t26.5 41.5t11 59.5q0 39 -12 69t-30 47t-42 27.5t-45 14t-43 3.5h-81v-231
q0 -37 16 -56.5t31 -20.5z" />
    <glyph glyph-name="c" unicode="c" horiz-adv-x="680" 
d="M363 -10q67 0 121 24t83.5 58t49.5 68t27 58l6 24q-26 -51 -72 -89t-98.5 -56t-108.5 -12t-102 35.5t-78 94.5t-37 157q-4 25 -0.5 62.5t8.5 78.5t22.5 82.5t41 74t64.5 53t94 20.5q99 -1 163 -83t70 -178h17l12 179q-4 4 -12.5 11t-35 24t-55 30t-71.5 23.5t-86 9.5h-20
t-50 -6.5t-70.5 -19t-74.5 -41t-70.5 -68t-50 -104.5t-20.5 -147q0 -70 21.5 -131t56.5 -102.5t79.5 -71.5t89 -44t86.5 -14z" />
    <glyph glyph-name="d" unicode="d" horiz-adv-x="723" 
d="M693 374q0 77 -18 138t-45.5 98t-66.5 63t-74 37.5t-74 16.5q-25 4 -57 4h-327v-13q48 0 68.5 -18.5t20.5 -55.5v-554q0 -77 -90 -77v-13h272q39 0 65.5 1.5t71 9t75.5 21t67.5 41.5t59 66.5t37.5 98.5t15 136zM566 367q4 -85 -15 -158.5t-51 -109.5q-35 -41 -88 -63
t-110 -22q-22 0 -34 1.5t-24 8t-16.5 21.5t-4.5 39v567q0 40 21 53.5t62 13.5q40 0 94 -18q78 -25 118 -102q42 -80 48 -231z" />
    <glyph glyph-name="e" unicode="e" horiz-adv-x="617" 
d="M571 205h16l-14 -205h-543v13q35 0 62 16.5t27 55.5v561q0 72 -89 72v13h524l13 -184h-15q-15 79 -70 125t-137 46h-47q-38 0 -56.5 -19t-18.5 -50v-160l115 2q136 5 136 102h16v-217h-16q0 48 -36.5 73.5t-101.5 27.5l-113 -2v-259l115 2q136 5 136 102h16v-217h-16
q0 48 -36.5 73.5t-101.5 27.5l-113 -2v-120q0 -18 8 -32t18 -21t22 -11t18 -4.5t9 -0.5h65q97 0 149 55t59 137z" />
    <glyph glyph-name="f" unicode="f" horiz-adv-x="597" 
d="M553 731l14 -195h-14q-14 94 -74.5 138t-134.5 44h-46q-76 0 -76 -69v-160l116 2q136 5 136 102h16v-217h-16q0 48 -36.5 73.5t-101.5 27.5l-114 -2v-259l116 2q136 5 136 102h16v-217h-16q0 48 -36.5 73.5t-101.5 27.5l-114 -2v-116q0 -73 98 -73v-13h-290v13
q34 0 60.5 17t26.5 57v559q0 21 -7 35.5t-15.5 21.5t-23.5 10.5t-22 4t-19 0.5v13h523z" />
    <glyph glyph-name="g" unicode="g" horiz-adv-x="674" 
d="M644 310v-177l-94 -87q-77 -58 -177 -58q-64 0 -124 23t-109.5 66.5t-79.5 114t-30 158.5q0 179 97 283.5t247 104.5q43 0 86 -10t74.5 -24.5t56.5 -29t37 -24.5l13 -10l-12 -180h-17q-8 125 -72.5 194t-166.5 69q-62 0 -107.5 -37.5t-68.5 -96.5t-33.5 -118t-10.5 -116
q0 -26 4.5 -58.5t15 -73.5t28 -77.5t43 -69.5t60.5 -50.5t80 -20.5t102 21q42 18 42 64v220h116z" />
    <glyph glyph-name="h" unicode="h" horiz-adv-x="753" 
d="M721 718q-75 0 -75 -73v-559q0 -41 23.5 -57t53.5 -16v-13h-255v13q35 0 55.5 14.5t20.5 57.5v125h-334v-125q0 -43 20.5 -57.5t56.5 -14.5v-13h-257v13q78 0 78 73v558q0 41 -23.5 57.5t-54.5 16.5v13h257v-13q-36 0 -56.5 -15t-20.5 -58v-421h334v422q0 43 -21 57.5
t-57 14.5v13h255v-13z" />
    <glyph glyph-name="i" unicode="i" horiz-adv-x="313" 
d="M207 646v-561q0 -42 20.5 -57t55.5 -15v-13h-253v13q35 0 55 15t20 57v561q0 42 -20 57t-55 15v13h253v-13q-35 0 -55.5 -15t-20.5 -57z" />
    <glyph glyph-name="j" unicode="j" horiz-adv-x="352" 
d="M322 718v13h-254v-13q76 0 76 -71v-475v-38t-6.5 -85.5t-18.5 -108.5t-40.5 -85.5t-68.5 -38.5v-12q49 0 88 16.5t63.5 40t42 61t25.5 66.5t12.5 70t5 59t0.5 45v7v475q0 45 20.5 59.5t54.5 14.5z" />
    <glyph glyph-name="k" unicode="k" horiz-adv-x="732" 
d="M668 19q18 -6 34 -6v-13h-233l-160 196h-87v-110q0 -22 8.5 -37t17 -22t26.5 -10.5t23.5 -3.5h21.5v-13h-289v13h19.5t21.5 3.5t24 10.5t15.5 22t7.5 36v560q0 73 -87 73v13h266v-13q-75 0 -75 -72v-437h70q101 0 166.5 121t51.5 314q-4 43 -26.5 58.5t-72.5 15.5v13h231
v-14q-57 0 -83 -16.5t-24 -64.5q3 -86 -8 -158t-29 -114t-36 -71.5t-31 -40.5l-13 -11q6 -8 16.5 -21t41 -47.5t59.5 -62.5t66 -55t67 -36z" />
    <glyph glyph-name="l" unicode="l" horiz-adv-x="626" 
d="M596 217h-21q-11 -43 -28.5 -76.5t-35 -54.5t-43.5 -36t-44 -22t-47 -10.5t-41 -4t-37 -0.5q-31 0 -52 17t-21 54v558q0 47 17.5 61t54.5 14v14h-268v-13q88 0 88 -73v-560q0 -25 -7.5 -40.5t-22.5 -21.5t-26.5 -7.5t-31.5 -1.5v-14h544z" />
    <glyph glyph-name="m" unicode="m" horiz-adv-x="1007" 
d="M30 0l345 762l140 -351l159 351l303 -762h-947zM335 13l122 270l-128 321l-269 -591h275zM628 604l-101 -223l146 -368h190zM359 13h205l-95 240z" />
    <glyph glyph-name="n" unicode="n" horiz-adv-x="1029" 
d="M781 731h218v-14q-36 0 -70 -35.5t-34 -110.5v-571h-27l-345 601q-1 -4 -1 -393l-1 -48q0 -4 1 -6v-154h-27l-344 600v-443q0 -75 35.5 -109t72.5 -34v-14h-229v14q38 0 72.5 34t34.5 111l1 461l-20 34q-4 7 -10.5 17t-26 26.5t-38.5 16.5v17h171l295 -520v368
q0 38 -4 53l-13 22q-4 7 -10.5 17t-26.5 26.5t-39 16.5v17h170l296 -524v365q0 77 -32 111t-69 34v14z" />
    <glyph glyph-name="o" unicode="o" 
d="M559 370q84 -34 125 -92t20 -121q-19 -56 -81 -99t-148 -62.5t-174 -10.5q-134 14 -213 85.5t-51 156.5q28 83 144 134q-84 33 -124.5 91.5t-19.5 121.5q28 85 147.5 135t254.5 36t214 -85.5t51 -156.5q-29 -83 -145 -133zM162 563q-20 -58 -6 -108.5t58 -80.5
q109 37 225 25q32 -4 46 -7q70 50 96 127q28 83 -12 144t-134 71q-93 10 -169 -39t-104 -132zM471 382q-15 4 -33 6q-92 9 -170 -39q16 -5 36 -6q90 -10 167 39zM581 173q20 58 6 107t-58 78q-109 -38 -228 -26q-32 4 -48 7q-67 -48 -91 -122q-28 -83 11 -146t132 -73
t170.5 41t105.5 134z" />
    <glyph glyph-name="p" unicode="p" horiz-adv-x="605" 
d="M221 191h88q132 0 199 63.5t67 221.5q0 133 -62.5 194t-186.5 61h-295v-14q16 0 27 -1.5t27 -7.5t25 -22t9 -41v-560q0 -21 -7 -36t-15 -21.5t-23.5 -10t-22.5 -4t-21 -0.5v-13h290v13q-19 0 -31 1.5t-30.5 7.5t-28 22t-9.5 42v105zM221 203v417q0 32 2 41q4 18 15 32.5
t27 19.5q14 5 44 5q24 0 43.5 -4.5t33.5 -13t25.5 -20t18.5 -25.5t12 -30t7 -33t3.5 -35t1.5 -35v-34v-16q0 -59 -2 -94.5t-10 -73t-23.5 -57t-42.5 -32t-66 -12.5h-89z" />
    <glyph glyph-name="q" unicode="q" 
d="M559 368q84 -34 125 -92t20 -121q-24 -71 -114.5 -119t-204.5 -55q25 -13 55.5 -53t59 -71t55.5 -31q13 0 29 7t26 13l10 7l8 -14q-5 -6 -15 -15t-46.5 -24t-78.5 -15q-38 0 -69.5 25.5t-49 56.5t-40 56.5t-45.5 25.5q-11 0 -29.5 -6.5t-31.5 -13.5l-13 -7l-11 9
q44 37 101 53q-134 14 -212.5 85t-50.5 156q28 83 144 134q-83 34 -124 92t-20 121q29 85 149 135t254 36t213 -85.5t51 -156.5q-29 -83 -145 -133zM162 561q-20 -58 -6 -108.5t58 -80.5q109 37 226 25q33 -4 46 -7q69 50 95 127q28 83 -11.5 144t-133.5 71
q-93 10 -169.5 -39t-104.5 -132zM472 380q-17 5 -34 6q-92 9 -169 -39q16 -4 35 -6q89 -10 168 39zM581 171q20 58 6 107t-58 78q-109 -38 -228 -26q-32 4 -47 7q-68 -47 -92 -122q-28 -83 11 -146t132 -73q94 -10 171 41t105 134z" />
    <glyph glyph-name="r" unicode="r" horiz-adv-x="732" 
d="M668 19q18 -6 34 -6v-13h-233l-160 196h-87v-110q0 -22 8.5 -37t17 -22t26.5 -10.5t23.5 -3.5h21.5v-13h-289v13h19.5t21.5 3.5t24 10.5t15.5 22t7.5 36v560q0 73 -87 73v13h278q69 0 118 -15t76.5 -37.5t43 -60.5t19.5 -73.5t4 -86.5q0 -94 -44 -159.5t-94 -84.5
q5 -7 14.5 -18t37.5 -41t55.5 -54.5t63 -48.5t65.5 -33zM310 209q61 0 100 63t39 186q0 33 -1 55t-4.5 56.5t-13 57t-24 45.5t-39.5 34.5t-58 11.5q-87 0 -87 -72v-437h88z" />
    <glyph glyph-name="s" unicode="s" horiz-adv-x="530" 
d="M427 171q51 -24 66.5 -59t-3.5 -65t-63 -43q-85 -22 -171 -21t-152 13l-65 12l16 92h14q3 -42 50.5 -69.5t102.5 -35.5t96 -1q38 6 57.5 24t16 39.5t-25.5 38.5q-15 11 -33.5 21t-46 19.5t-44 14.5t-53 15.5t-46.5 13.5q-67 19 -91 46t-21 64q3 55 115 77q36 7 112.5 6
t93.5 13q37 16 42 40.5t-24 45.5q-18 14 -47.5 27t-52 20t-65.5 19.5t-58 17.5q-69 21 -94.5 48.5t-22.5 63.5q3 53 115 73q78 11 150.5 7.5t123.5 -13.5l51 -10l-16 -91h-14q-5 34 -37.5 59.5t-75 35t-86.5 13t-70 -5.5q-33 -8 -41 -29.5t6 -40.5q19 -33 119 -62
q118 -31 170 -57q51 -24 67.5 -59t-2.5 -64t-64 -41q-57 -16 -113 -19.5t-81 -0.5t-61 -6q-31 -9 -38 -30t6 -40q11 -20 39 -32t79 -27q118 -31 170 -57z" />
    <glyph glyph-name="t" unicode="t" horiz-adv-x="688" 
d="M658 514l-15 217h-598l-15 -217h22q31 204 176 204h64v-633q0 -31 -17 -48t-36 -20t-50 -3v-14h311v14q-23 0 -37 1.5t-32 8t-26.5 22t-8.5 40.5v632h58q58 0 99 -33t59.5 -76.5t24.5 -94.5h21z" />
    <glyph glyph-name="u" unicode="u" horiz-adv-x="549" 
d="M30 731h489v-428q1 -174 -53 -244.5t-186 -70.5q-250 0 -250 277v466zM287 28q46 0 82 11.5t58.5 27.5t38.5 43t24 48t12 54t4.5 48.5t0.5 42.5v415h-373q-5 -482 5 -537q15 -104 81 -138q29 -15 67 -15z" />
    <glyph glyph-name="v" unicode="v" horiz-adv-x="708" 
d="M30 731h648l-324 -762zM144 718l256 -591l248 591h-504z" />
    <glyph glyph-name="w" unicode="w" horiz-adv-x="1007" 
d="M977 731l-345 -762l-140 351l-159 -351l-303 762h947zM379 127l101 223l-146 368h-190zM648 718h-205l96 -240zM672 718l-122 -270l128 -321l269 591h-275z" />
    <glyph glyph-name="x" unicode="x" horiz-adv-x="922" 
d="M825 71q3 -6 9 -16t24 -26t34 -16v-13h-197v13q27 0 34.5 5.5t7.5 17.5q0 6 -10 26l-131 259l-76 -146q-23 -43 -31 -85l10 -19q3 -6 9 -16t24 -26t34 -16v-13h-210v13q26 0 54 27q-1 2 -9 19l-132 260l-75 -144l-21 -50q-38 -112 36 -112v-13h-179v13q32 0 70.5 42
t61.5 84l23 42l78 151l-151 305q-4 9 -11.5 22.5t-26.5 35.5t-33 22v14h196v-13q-49 0 -49 -27q0 -5 8 -24l121 -238l69 129q5 9 12 23t16.5 47t5.5 54q-25 35 -53 35v14h196v-13q-48 0 -48 -27q0 -8 7 -24l121 -238l69 129q1 2 3 5.5t7 14.5t9.5 21.5t9 25t6.5 27t0.5 25
t-6.5 21.5t-17 14.5t-29 5.5v13h180v-13q-30 0 -68.5 -41.5t-61.5 -82.5l-23 -42l-73 -135zM512 181l78 152l-149 293q-13 -18 -24.5 -36.5t-16.5 -27.5l-5 -10l-72 -135l152 -299z" />
    <glyph glyph-name="y" unicode="y" horiz-adv-x="705" 
d="M675 718q-35 0 -55.5 -15t-20.5 -57v-561q0 -42 20.5 -57t55.5 -15v-13h-253v13q35 0 55 15t20 57v190q-66 -29 -163 -29q-36 0 -64 2t-60.5 9t-54 19.5t-36 35t-14.5 52.5v282q0 42 -20 57t-55 15v13h253v-13q-35 0 -55.5 -15t-20.5 -57v-279q0 -46 40 -72.5t93 -26.5
q93 0 157 32v346q0 42 -20 57t-55 15v13h253v-13z" />
    <glyph glyph-name="z" unicode="z" horiz-adv-x="662" 
d="M382 13q46 0 81 18.5t55.5 50t32 64.5t17.5 71h21l-15 -217h-544l355 353h-260l355 365h-185q-76 0 -127 -54t-62 -149h-24l15 216h535l-356 -365l266 -1l-364 -352h204z" />
    <glyph glyph-name="quoteleft" unicode="&#x2018;" horiz-adv-x="205" 
d="M48 522q21 -33 61 -33q28 0 47 19t19 47q0 31 -18.5 48.5t-47.5 17.5q-9 0 -23 -4q-7 -3 -12.5 1t-5.5 11q0 30 23 59t56 43l-10 18q-107 -50 -107 -159q0 -40 18 -68z" />
    <glyph glyph-name="quoteright" unicode="&#x2019;" horiz-adv-x="205" 
d="M157 716q-21 33 -61 33q-28 0 -47 -19t-19 -47q0 -31 18.5 -48.5t47.5 -17.5q11 0 23 5q7 2 12.5 -2t5.5 -11q0 -30 -23 -59t-56 -43l10 -18q107 50 107 159q0 40 -18 68z" />
    <glyph glyph-name="quotedblleft" unicode="&#x201c;" horiz-adv-x="397" 
d="M48 522q21 -33 61 -33q28 0 47 19t19 47q0 31 -18.5 48.5t-47.5 17.5q-9 0 -23 -4q-7 -3 -12.5 1t-5.5 11q0 30 23 59t56 43l-10 18q-107 -50 -107 -159q0 -40 18 -68zM240 522q21 -33 61 -33q28 0 47 19t19 47q0 31 -18.5 48.5t-47.5 17.5q-9 0 -23 -4q-7 -3 -12.5 1
t-5.5 11q0 30 23 59t56 43l-10 18q-107 -50 -107 -159q0 -40 18 -68z" />
    <glyph glyph-name="quotedblright" unicode="&#x201d;" horiz-adv-x="397" 
d="M157 716q-21 33 -61 33q-28 0 -47 -19t-19 -47q0 -31 18.5 -48.5t47.5 -17.5q11 0 23 5q7 2 12.5 -2t5.5 -11q0 -30 -23 -59t-56 -43l10 -18q107 50 107 159q0 40 -18 68zM349 716q-21 33 -61 33q-28 0 -47 -19t-19 -47q0 -31 18.5 -48.5t47.5 -17.5q11 0 23 5
q7 2 12.5 -2t5.5 -11q0 -30 -23 -59t-56 -43l10 -18q107 50 107 159q0 40 -18 68z" />
    <glyph glyph-name="A.ss01" horiz-adv-x="772" 
d="M659 105q27 -61 40.5 -76.5t42.5 -15.5v-13h-253v13q40 0 56.5 25t3.5 65l-43 108h-304l-10 -28q-16 -40 -16.5 -71t9.5 -49t27.5 -30t34 -16t32.5 -4v-13h-249v13q22 0 41.5 10t30.5 20.5t25 34.5t18 33.5t15 36.5q25 61 105.5 267t77.5 212q-8 16 -19.5 25.5
t-19.5 11.5l-8 1q33 7 62.5 24t41.5 30l13 13q244 -623 246 -627zM208 224h293l-18 47l-128 330z" />
    <glyph glyph-name="E.ss01" horiz-adv-x="617" 
d="M571 205h16l-14 -205h-543v13l279 351l-279 354v13h524l13 -184h-15q-15 79 -70 125t-137 46h-196l287 -354l-290 -351h217q97 0 149 55t59 137z" />
    <glyph glyph-name="F.ss01" horiz-adv-x="597" 
d="M553 731l14 -195h-14q-14 94 -74.5 138t-134.5 44h-46q-76 0 -76 -69v-563q0 -73 98 -73v-13h-290v13q34 0 60.5 17t26.5 57v559q0 21 -7 35.5t-15.5 21.5t-23.5 10.5t-22 4t-19 0.5v13h523z" />
    <glyph glyph-name="M.ss01" horiz-adv-x="1094" 
d="M279 0h-249v13q22 0 40.5 8.5t30 18.5t24.5 32.5t18.5 35t16.5 40.5l241 615l161 -412l161 412l263 -672q26 -78 78 -78v-13h-252v14q31 0 47.5 11.5t17.5 30t-2.5 33.5t-9.5 29l-190 484l-105 -271l94 -240q30 -78 78 -78v-13h-363v13q34 0 51 21t39 73l38 103l-154 393
l-163 -418q-16 -40 -16.5 -71.5t10 -50t28 -30.5t34.5 -16t33 -4v-13zM553 89q-29 74 -38 99l-21 -51q-6 -15 -7 -25q-7 -31 8.5 -64.5t41.5 -33.5q24 0 27.5 22t-11.5 53z" />
    <glyph glyph-name="N.ss01" horiz-adv-x="753" 
d="M646 645v-559q0 -41 23.5 -57t53.5 -16v-13h-255v13q35 0 55.5 14.5t20.5 57.5v561q0 64 -55 71h-223q-56 -7 -56 -71v-561q0 -43 20.5 -57.5t56.5 -14.5v-13h-257v13q78 0 78 73v559q0 73 -78 73v13h693v-13q-30 0 -53.5 -16t-23.5 -57z" />
    <glyph glyph-name="O.ss01" horiz-adv-x="740" 
d="M703 303q19 100 -11 194t-97.5 157.5t-155.5 79.5t-174 -18.5t-147.5 -111t-80.5 -176.5q-29 -151 50 -278.5t213 -152.5q88 -16 174 18.5t148 111.5t81 176zM580 331q-28 -149 -106 -244t-171 -77t-131.5 134.5t-10.5 265.5q28 148 105.5 238.5t170.5 72.5t132 -130
t11 -260z" />
    <glyph glyph-name="O.ss02" horiz-adv-x="760" 
d="M730 366q0 -106 -87 -186t-213 -96q1 -71 76 -71v-13h-253v13q35 0 55 15t20 57q-125 15 -211.5 95.5t-86.5 185.5t86.5 185t211.5 95q0 42 -20 57t-55 15v13h253v-13q-75 0 -76 -71q126 -16 213 -96t87 -185zM430 98q77 21 123.5 96.5t46.5 174.5q0 98 -46 171.5
t-124 93.5v-536zM160 369q0 -98 46 -174t122 -97v535q-76 -20 -122 -93.5t-46 -170.5z" />
    <glyph glyph-name="O.ss03" horiz-adv-x="850" 
d="M533 742q116 0 201.5 -110t85.5 -265q0 -154 -85.5 -264.5t-201.5 -110.5q-54 0 -109 29q-55 -29 -109 -29q-115 0 -200 110.5t-85 264.5q0 155 85 265t200 110q57 0 109 -29q52 29 109 29zM315 5q45 0 79 36q-66 50 -106.5 137t-40.5 189q0 103 40.5 190t107.5 137
q-35 35 -79 35q-53 0 -91 -49t-56 -128.5t-18 -179.5t18 -182t56 -133.5t90 -51.5zM533 5q53 0 91 51.5t56 133t18 182.5q0 155 -43 256t-121 101q-46 0 -80 -36q67 -49 107.5 -136t40.5 -190q0 -102 -40.5 -189t-106.5 -136q34 -37 78 -37zM425 653q-56 -100 -56 -281
q0 -184 56 -287q55 104 55 287q0 180 -55 281z" />
    <glyph glyph-name="Q.ss01" 
d="M704 301q-24 -126 -114 -212.5t-204 -97.5q25 -14 55.5 -54t58.5 -70t55 -30q12 0 28.5 6.5t26.5 13.5l10 7l8 -14q-5 -6 -15 -15t-46.5 -24t-78.5 -15q-32 0 -58 17t-43.5 41t-33 48t-33 41t-36.5 17q-11 0 -29.5 -7t-31.5 -13l-13 -7l-11 9q45 37 102 53
q-134 25 -213 152.5t-51 278.5q29 152 148.5 241.5t254.5 64.5q134 -26 213 -152.5t51 -278.5zM581 329q28 148 -11 260t-133 130q-93 18 -170 -73t-105 -239q-16 -99 -7.5 -183.5t48 -144.5t101.5 -71q93 -18 171 77t106 244z" />
    <glyph glyph-name="S.ss01" horiz-adv-x="538" 
d="M431 347q51 -48 68.5 -113t0.5 -120t-61 -81q-65 -40 -162 -40q-135 0 -201.5 80t-36.5 182q11 39 44.5 80.5t66.5 62.5q-50 33 -79.5 85t-27.5 109q1 46 34.5 85.5t80.5 56.5q42 15 90.5 17t88.5 -5t74 -16.5t53 -17.5l19 -9l-16 -179h-14q-4 54 -26 97t-54 67
t-67.5 36.5t-68 12t-54.5 -12.5q-33 -17 -44.5 -60.5t1.5 -80.5q21 -70 122 -124q123 -67 169 -112zM279 5q50 0 82.5 24.5t42.5 60t6 72t-21 62.5q-21 31 -57.5 61t-63.5 46t-75 42q-61 -52 -79.5 -119t0 -120.5t63.5 -91t102 -37.5z" />
    <glyph glyph-name="X.ss01" horiz-adv-x="816" 
d="M786 718q-41 0 -102.5 -42t-103.5 -84l-41 -42l-67 -69l59 -62l-103 -105l231 -242q6 -6 16.5 -16t37 -26t47.5 -16v-14h-278v13q41 0 52.5 12t2.5 24l-9 12l-173 178l-63 -64l-32 -38q-76 -101 -2 -120q17 -4 38 -4v-13h-266v13q41 0 102.5 42t103.5 84l41 42l67 69
l-59 62l103 105l-231 242q-6 6 -16.5 16t-37 26t-47.5 16v14h278v-13q-41 0 -52.5 -12t-2.5 -24l9 -12l173 -178l63 64l32 38q76 101 2 120q-17 4 -38 4v13h266v-13zM447 356l-48 50l-30 -31l48 -50z" />
    <glyph glyph-name="Y.ss01" horiz-adv-x="623" 
d="M30 731h563l-216 -424v-231q4 -29 24.5 -44.5t38.5 -16.5l19 -1v-14h-268v14h7.5t17 3t22.5 8t20 16.5t14 28.5q2 10 2 17v184zM566 718h-416l217 -403z" />
    <glyph glyph-name="two.ss01" horiz-adv-x="505" 
d="M463 153h12q-2 -153 -134 -153q-62 0 -130 27.5t-95 27.5q-33 0 -67 -34h-19q235 258 263 292q97 120 64 221q-21 65 -86 90q-73 28 -136 -17q-33 -23 -55 -64l-21 4q32 125 132 169q83 37 164 0q77 -35 93 -117q26 -128 -122 -289q-6 -6 -12 -13l-143 -157q57 0 116 -22
t98 -22q64 0 78 57z" />
    <glyph glyph-name="four.ss01" horiz-adv-x="580" 
d="M525 214h-93v-129q0 -37 19.5 -54t64.5 -17v-14h-270v14q46 0 64.5 16.5t18.5 54.5v129h-299v61q54 30 101 86t75 115t48 113.5t28 88.5l8 35q16 2 44 11.5t48 18.5l20 9q-21 -126 -123.5 -274t-211.5 -203l262 -1v220l103 105v-325q10 -1 24.5 -0.5t42.5 11t35 31.5
l16 -1z" />
    <glyph glyph-name="five.ss01" horiz-adv-x="490" 
d="M57 414q173 80 293 22q83 -40 103 -126q22 -94 -45 -177q-92 -116 -302 -133h-3l1 16q157 33 218 133q47 76 14.5 148.5t-124.5 89.5q-80 15 -182 -22l47 360q16 6 70 6q52 0 117.5 -27t103.5 -27q37 0 56.5 17.5t23.5 36.5h12q-1 -55 -36 -102t-98 -47q-51 0 -109 28
t-86 28q-16 0 -27 -1t-14 -3l-3 -1z" />
    <glyph glyph-name="seven.ss01" horiz-adv-x="547" 
d="M503 721h14q-166 -232 -236.5 -397t-66.5 -324h-130q11 85 50 179.5t94 178t96.5 138t84.5 103.5q-33 -12 -72 -12q-61 0 -123 24t-102 24q-43 0 -82 -29l19 111q34 17 107 17q61 0 125.5 -30.5t109.5 -30.5q73 0 112 48z" />
    <glyph glyph-name="newGlyph" horiz-adv-x="600" 
 />
    </font>
</defs>
</svg>
